<?xml version="1.0" encoding="utf-8"?>
<!-- Svg Vector Icons : http://www.onlinewebfonts.com/icon -->
<!DOCTYPE svg PUBLIC "-//W3C//DTD SVG 1.1//EN" "http://www.w3.org/Graphics/SVG/1.1/DTD/svg11.dtd">
<svg version="1.1" xmlns="http://www.w3.org/2000/svg" xmlns:xlink="http://www.w3.org/1999/xlink" x="0px" y="0px" viewBox="0 0 1000 1000" enable-background="new 0 0 1000 1000" xml:space="preserve">
<metadata> Svg Vector Icons : http://www.onlinewebfonts.com/icon </metadata>
<g><g transform="translate(0.000000,511.000000) scale(0.100000,-0.100000)"><path d="M2273.4,4973.6c-226-83.9-387.4-230.3-497.2-454.2c-51.7-107.6-58.1-142.1-58.1-355.2c0-223.9,4.3-245.4,68.9-378.8c157.1-318.6,518.7-518.7,863.1-477.8l103.3,10.8l703.8-1037.5l703.9-1037.5l-92.5-103.3c-200.2-223.9-322.9-538.1-325-845.9l-2.2-189.4l-129.1-38.7c-71-21.5-374.5-109.8-673.7-195.9l-542.4-157.1l-129.1,122.7c-71,66.7-183,148.5-251.8,180.8c-111.9,51.7-150.7,58.1-350.8,58.1c-200.2,0-238.9-6.5-350.8-58.1C1072.3-97.6,919.5-272,842-526c-90.4-301.3-6.5-632.8,217.4-850.2C1556.6-1860.5,2381-1593.6,2508-909.1c23.7,122.7,30.1,135.6,90.4,152.8c36.6,10.8,337.9,96.9,671.6,193.7c333.6,94.7,613.5,174.3,624.2,174.3c10.8,0,43.1-40.9,73.2-88.2c73.2-118.4,290.6-320.7,436.9-404.7c66.7-38.7,116.2-79.6,111.9-94.7c-4.3-15.1-139.9-475.7-301.3-1026.7c-159.3-551-299.2-1020.3-309.9-1046.1c-15.1-34.5-45.2-49.5-120.5-56c-241.1-28-514.4-238.9-630.7-486.4c-51.7-109.8-58.1-148.5-58.1-359.5c0-217.4,4.3-247.5,62.4-365.9c81.8-165.7,245.4-329.3,411.1-411.1c118.4-58.1,148.5-62.4,365.9-62.4c217.4,0,247.5,4.3,365.9,62.4c165.7,81.8,329.3,245.4,411.1,411.1c58.1,118.4,62.4,148.5,62.4,365.9c0,213.1-6.5,249.7-58.1,361.6c-34.4,75.3-111.9,176.5-191.6,256.2l-131.3,133.5l282,957.8c155,527.4,294.9,1009.5,314.3,1069.8l32.3,109.8l148.5,15.1c195.9,17.2,393.9,79.6,546.7,172.2l124.9,75.3l843.8-764.1c525.2-477.9,841.6-779.2,839.5-800.7c-2.1-19.4-15.1-101.2-30.1-183c-73.2-376.7,133.4-768.4,490.7-936.3c109.8-51.7,150.7-58.1,350.8-58.1c200.2,0,241.1,6.5,348.7,58.1c144.2,66.7,316.4,219.6,391.8,348.7c234.6,402.5,103.3,932-290.6,1168.8c-245.4,146.4-518.8,167.9-781.4,60.3l-127-51.7l-101.2,90.4c-53.8,49.5-434.8,393.9-845.9,766.3L6186.6-427l64.6,127c165.7,329.3,170,798.6,8.6,1117.1c-30.1,58.1-53.8,118.4-51.7,133.5c0,23.7,729.7,710.3,1259.2,1188.2l139.9,127l90.4-36.6c139.9-58.1,391.7-68.9,542.4-23.7c447.7,127,716.8,583.3,604.8,1022.4c-118.4,462.8-579,751.2-1020.3,637.1c-279.8-71-456.3-210.9-576.9-456.3c-105.5-213.1-122.7-406.8-53.8-632.8c25.8-86.1,40.9-163.6,30.1-172.2c-17.2-15.1-1192.5-1099.9-1310.9-1209.7l-66.7-62.4l-127,77.5c-206.6,124.8-389.6,172.2-665.1,172.2c-159.3-2.2-273.4-12.9-348.7-36.6l-111.9-36.6l-699.6,1033.2l-699.6,1031l75.3,109.8c107.6,159.3,144.2,310,133.4,533.8c-10.8,230.3-83.9,393.9-241.1,553.2c-167.9,165.7-322.9,230.3-572.6,238.9C2428.4,5014.5,2361.6,5005.8,2273.4,4973.6z"/></g></g>
</svg>